:FULLY-SPECIFIED
:FORCE-ALL-JOINTS-BE-3DOF
:DEGREES
2141
root -2.36866 15.2668 -0.104309 -177.944 4.30468 -173.425
lfemur -48.9157 17.4205 -21.788
ltibia 43.1 -0 0
lfoot 6.88456 19.2357 -0.332876
ltoes 0.895706 -0 0
rfemur -2.52805 -1.96781 25.5906
rtibia 44.5435 -0 0
rfoot -17.3444 5.19399 -0.0633565
rtoes -26.4527 0 0
lowerback 9.65492 1.01499 0.1465
upperback -2.04881 1.77614 3.41916
thorax -7.55802 0.990069 3.29051
lowerneck -5.60694 -1.97536 -6.13258
upperneck 8.65291 -2.53445 3.87316
head 3.8818 -1.31116 2.15898
lclavicle -2.85753e-15 1.39149e-15 0
lhumerus 46.4499 -9.58938 97.6032
lradius 24.2079 -0 0
lwrist -48.0356 0 0
lhand -34.149 44.6464 -0.0689912
lfingers 7.12502 -0 0
lthumb -7.32285 74.4821 -0.0650493
rclavicle -2.85753e-15 1.39149e-15 0
rhumerus -45.9057 21.1064 -94.3904
rradius 109.725 -0 0
rwrist -84.9577 0 0
rhand -0.0514705 -32.6834 0.463142
rfingers 7.12502 -0 0
rthumb 22.8228 -50.2925 6.28323
2142
root -2.34657 15.2709 -0.361235 -178.308 3.61971 -173.729
lfemur -47.7704 17.0641 -21.6548
ltibia 43.5856 -0 0
lfoot 5.90327 19.3819 -0.363358
ltoes -0.123324 0 0
rfemur -3.97701 -1.86922 25.0875
rtibia 44.8824 -0 0
rfoot -16.3848 5.16552 -0.0691552
rtoes -25.5474 0 0
lowerback 9.79794 0.9634 -0.166836
upperback -1.98382 1.66058 3.37637
thorax -7.55741 0.942145 3.44429
lowerneck -5.60514 -2.09115 -6.17427
upperneck 8.86256 -2.7118 3.92146
head 3.95024 -1.40494 2.16242
lclavicle -2.85753e-15 1.39149e-15 0
lhumerus 45.6706 -10.5218 97.0985
lradius 25.4292 -0 0
lwrist -46.5083 0 0
lhand -33.9779 44.4715 -0.0752659
lfingers 7.12502 -0 0
lthumb -7.15764 74.3113 -0.0709653
rclavicle -2.85753e-15 1.39149e-15 0
rhumerus -44.6225 20.9248 -93.5908
rradius 110.049 -0 0
rwrist -84.0617 0 0
rhand 1.79818 -32.5776 0.506331
rfingers 7.12502 -0 0
rthumb 24.3604 -48.5956 6.87886
2143
root -2.32449 15.2751 -0.618161 -178.667 2.93285 -174.029
lfemur -46.628 16.7052 -21.5294
ltibia 44.0712 -0 0
lfoot 4.92189 19.5286 -0.391331
ltoes -1.14235 0 0
rfemur -5.42671 -1.78338 24.582
rtibia 45.2212 -0 0
rfoot -15.4253 5.13697 -0.0744765
rtoes -24.6421 0 0
lowerback 9.94125 0.91259 -0.480295
upperback -1.91876 1.54508 3.33346
thorax -7.55693 0.894219 3.59807
lowerneck -5.60325 -2.20695 -6.21597
upperneck 9.07209 -2.88932 3.96912
head 4.01868 -1.49872 2.16574
lclavicle -2.85753e-15 1.39149e-15 0
lhumerus 44.8972 -11.4609 96.6052
lradius 26.6506 -0 0
lwrist -44.9809 0 0
lhand -33.8067 44.2966 -0.0810181
lfingers 7.12502 -0 0
lthumb -6.9924 74.1405 -0.0763886
rclavicle -2.85753e-15 1.39149e-15 0
rhumerus -43.3437 20.7266 -92.7968
rradius 110.373 -0 0
rwrist -83.1657 0 0
rhand 3.64792 -32.4704 0.546081
rfingers 7.12502 -0 0
rthumb 25.9171 -46.881 7.42876
2144
root -2.30241 15.2792 -0.875087 -179.023 2.24413 -174.325
lfemur -45.4887 16.344 -21.4116
ltibia 44.5568 -0 0
lfoot 3.94045 19.6757 -0.416788
ltoes -2.16139 0 0
rfemur -6.87705 -1.71035 24.0746
rtibia 45.56 -0 0
rfoot -14.4657 5.10832 -0.0793188
rtoes -23.7369 0 0
lowerback 10.0848 0.862564 -0.793876
upperback -1.85361 1.42962 3.29041
thorax -7.55658 0.846292 3.75184
lowerneck -5.60128 -2.32275 -6.25767
upperneck 9.2815 -3.06702 4.01614
head 4.08711 -1.59251 2.16896
lclavicle -2.85753e-15 1.39149e-15 0
lhumerus 44.1294 -12.4064 96.1232
lradius 27.8719 -0 0
lwrist -43.4536 0 0
lhand -33.6356 44.1216 -0.0862477
lfingers 7.12502 -0 0
lthumb -6.82715 73.9696 -0.0813193
rclavicle -2.85753e-15 1.39149e-15 0
rhumerus -42.0697 20.5119 -92.0088
rradius 110.696 -0 0
rwrist -82.2696 0 0
rhand 5.49774 -32.362 0.582352
rfingers 7.12502 -0 0
rthumb 27.4916 -45.1499 7.93197
2145
root -2.28032 15.2833 -1.13201 -179.375 1.5536 -174.615
lfemur -44.3521 15.9806 -21.3016
ltibia 45.0424 -0 0
lfoot 2.95895 19.8232 -0.439721
ltoes -3.18042 0 0
rfemur -8.32794 -1.65018 23.5656
rtibia 45.8988 -0 0
rfoot -13.5062 5.0796 -0.0836807
rtoes -22.8316 0 0
lowerback 10.2287 0.813325 -1.10758
upperback -1.78838 1.31421 3.24724
thorax -7.55636 0.798364 3.90562
lowerneck -5.59922 -2.43854 -6.29938
upperneck 9.49081 -3.24489 4.06251
head 4.15555 -1.6863 2.17206
lclavicle -2.85753e-15 1.39149e-15 0
lhumerus 43.3669 -13.3581 95.6525
lradius 29.0932 -0 0
lwrist -41.9262 0 0
lhand -33.4644 43.9466 -0.0909546
lfingers 7.12502 -0 0
lthumb -6.66189 73.7988 -0.0857571
rclavicle -2.85753e-15 1.39149e-15 0
rhumerus -40.8009 20.2809 -91.2272
rradius 111.02 -0 0
rwrist -81.3736 0 0
rhand 7.34764 -32.2525 0.615104
rfingers 7.12502 -0 0
rthumb 29.0827 -43.4034 8.3876
2146
root -2.25824 15.2875 -1.38894 -179.724 0.861313 -174.902
lfemur -43.2184 15.6152 -21.1993
ltibia 45.528 -0 0
lfoot 1.97738 19.9711 -0.460124
ltoes -4.19945 0 0
rfemur -9.77926 -1.60292 23.0551
rtibia 46.2376 -0 0
rfoot -12.5466 5.05081 -0.0875611
rtoes -21.9263 0 0
lowerback 10.3728 0.764875 -1.4214
upperback -1.72306 1.19886 3.20394
thorax -7.55626 0.750436 4.05939
lowerneck -5.59708 -2.55433 -6.3411
upperneck 9.70001 -3.42292 4.10824
head 4.22398 -1.78009 2.17505
lclavicle -2.85753e-15 1.39149e-15 0
lhumerus 42.6094 -14.3158 95.1929
lradius 30.3146 -0 0
lwrist -40.3988 0 0
lhand -33.2932 43.7717 -0.0951387
lfingers 7.12502 -0 0
lthumb -6.49661 73.6279 -0.089702
rclavicle -2.85753e-15 1.39149e-15 0
rhumerus -39.5374 20.0337 -90.4524
rradius 111.344 -0 0
rwrist -80.4776 0 0
rhand 9.19761 -32.142 0.644304
rfingers 7.12502 -0 0
rthumb 30.6888 -41.6428 8.79482
2147
root -2.23616 15.2916 -1.64587 179.931 0.167298 -175.184
lfemur -42.0873 15.2479 -21.1047
ltibia 46.0136 -0 0
lfoot 0.995763 20.1194 -0.477989
ltoes -5.21848 0 0
rfemur -11.2309 -1.5686 22.5437
rtibia 46.5764 -0 0
rfoot -11.5871 5.02196 -0.0909588
rtoes -21.0211 0 0
lowerback 10.5172 0.717214 -1.73534
upperback -1.65766 1.08355 3.16051
thorax -7.5563 0.702508 4.21316
lowerneck -5.59485 -2.67012 -6.38283
upperneck 9.9091 -3.60112 4.15333
head 4.29241 -1.87388 2.17793
lclavicle -2.85753e-15 1.39149e-15 0
lhumerus 41.8565 -15.2794 94.7444
lradius 31.5359 -0 0
lwrist -38.8715 0 0
lhand -33.122 43.5967 -0.0988
lfingers 7.12502 -0 0
lthumb -6.33132 73.457 -0.0931539
rclavicle -2.85753e-15 1.39149e-15 0
rhumerus -38.2796 19.7706 -89.6848
rradius 111.668 -0 0
rwrist -79.5816 0 0
rhand 11.0476 -32.0306 0.669922
rfingers 7.12502 -0 0
rthumb 32.3086 -39.8695 9.15288
2148
root -2.21408 15.2957 -1.90279 179.59 -0.528396 -175.463
lfemur -40.9588 14.8789 -21.0178
ltibia 46.4992 -0 0
lfoot 0.0140996 20.2679 -0.493313
ltoes -6.23751 0 0
rfemur -12.6828 -1.54724 22.0315
rtibia 46.9153 -0 0
rfoot -10.6275 4.99306 -0.0938729
rtoes -20.1158 0 0
lowerback 10.6618 0.670345 -2.04939
upperback -1.59217 0.968289 3.11694
thorax -7.55646 0.65458 4.36692
lowerneck -5.59254 -2.78591 -6.42456
upperneck 10.1181 -3.77948 4.19777
head 4.36083 -1.96768 2.1807
lclavicle -2.85753e-15 1.39149e-15 0
lhumerus 41.1078 -16.2485 94.3071
lradius 32.7572 -0 0
lwrist -37.3441 0 0
lhand -32.9508 43.4217 -0.101938
lfingers 7.12502 -0 0
lthumb -6.16603 73.2861 -0.0961129
rclavicle -2.85753e-15 1.39149e-15 0
rhumerus -37.0279 19.4918 -88.9249
rradius 111.991 -0 0
rwrist -78.6856 0 0
rhand 12.8977 -31.9184 0.691929
rfingers 7.12502 -0 0
rthumb 33.9404 -38.0849 9.46109
2149
root -2.19199 15.2999 -2.15972 179.251 -1.22573 -175.737
lfemur -39.8328 14.5084 -20.9385
ltibia 46.9847 -0 0
lfoot -0.967601 20.4167 -0.506089
ltoes -7.25654 0 0
rfemur -14.1348 -1.53886 21.519
rtibia 47.2541 -0 0
rfoot -9.66797 4.96411 -0.0963025
rtoes -19.2105 0 0
lowerback 10.8067 0.62427 -2.36356
upperback -1.5266 0.85308 3.07325
thorax -7.55675 0.606652 4.52069
lowerneck -5.59014 -2.9017 -6.46631
upperneck 10.327 -3.95801 4.24157
head 4.42926 -2.06149 2.18336
lclavicle -2.85753e-15 1.39149e-15 0
lhumerus 40.3631 -17.223 93.8808
lradius 33.9786 -0 0
lwrist -35.8168 0 0
lhand -32.7796 43.2466 -0.104554
lfingers 7.12502 -0 0
lthumb -6.00072 73.1152 -0.0985787
rclavicle -2.85753e-15 1.39149e-15 0
rhumerus -35.7823 19.1975 -88.1729
rradius 112.315 -0 0
rwrist -77.7896 0 0
rhand 14.7479 -31.8056 0.710305
rfingers 7.12502 -0 0
rthumb 35.5824 -36.2907 9.71886
